<?xml version="1.0" encoding="utf-8"?>
<!-- Generator: Adobe Illustrator 24.1.0, SVG Export Plug-In . SVG Version: 6.00 Build 0)  -->
<svg version="1.1" id="Layer_1" xmlns="http://www.w3.org/2000/svg" xmlns:xlink="http://www.w3.org/1999/xlink" x="0px" y="0px"
	  width="374px" height="267px" viewBox="0 0 665.4799805 475.2000122" style="enable-background:new 0 0 665.4799805 475.2000122;" xml:space="preserve">
<style type="text/css">
	.st0{fill:#FFFFFF;}
	.st1{fill:#C10230;}
	.st2{fill:#186EB5;}
	.st3{fill:#023177;}
	.st4{opacity:0.5;fill:#86BFEA;}
	.st5{fill-rule:evenodd;clip-rule:evenodd;fill:#023177;}
	@media (prefers-color-scheme: dark) { .st3, .st4, .st5 {fill:#FFFFFF;} }
</style>
<g>
	<path class="st0" d="M358.1200256,395.6099854h-74.8999939V381h74.8999939V395.6099854z"/>
	<path class="st1" d="M433.0100098,395.6099854h-74.8999939V381h74.8999939V395.6099854z"/>
	<path class="st2" d="M283.2200012,395.6099854h-74.8999939V381h74.8999939V395.6099854z"/>
</g>
<g>
	<path class="st3" d="M445.2200012,123.2699966l-0.5499878,0.0199966c0.0599976-0.0199966,0.1199951-0.0299988,0.1700134-0.0299988
		c-0.1199951,0.0100021-0.230011,0.0199966-0.3399963,0.0400009h-0.3500061l-4.4700012,0.5299988
		c-10.0499878,0.9100037-13.8500061-0.0500031-16.2200012-0.7600021c-1.3399963-0.5800018-2.9500122-1.0299988-5.4100037-0.8700027
		c-11.8500061,0.7799988-17.8600159,10.2000046-19.8399963,12.7499924
		c-6.6799927,4.3899994-13.6499939,8.1000061-20.9500122,11.3200073
		c-12.2000122,5.3699951-17.1900024,6.0700073-24.7200012,6.6100006
		c0.1600037-4.4199982,1.5899963-20.5500031,16.1199951-40.6600037c1.7999878-2.4599991,3.6900024-4.8499985,5.6900024-7.0800018
		l0.1000061-0.1100006l0.0599976-0.1100006c3.0700073-5.4700012,5.3900146-11.3700027,6.75-17.4899979
		c1.9100037-8.3499985,2.0499878-15.9400024,1.9100037-21.2799988c-0.1400146-5.3199997-0.6400146-10.6199989-1.2399902-15.8600006
		c-0.5100098-4.9000015-1.2600098-9.7999992-1.3900146-14.6100006c-0.0299988-1.2000008-0.019989-2.4000015,0.0400085-3.5800018
		l0.1600037-3.1499996l-2.0799866,2.1800003c-1.1799927,1.1799984-3.8500061,3.9400005-6.3299866,8.9400005
		c-0.9599915,2.0900002-1.7799988,4.2700005-2.230011,6.5400009c-0.0799866,0.4599991-0.1499939,0.9099998-0.2000122,1.3699989
		c-0.0100098-0.0499992-0.5499878-2.2099991-0.6199951-4.9900017c-0.019989-0.5900002-0.0100098-1.1699982,0.019989-1.7400017
		l0.1700134-3.3800011l-1.6300049,1.8699989c-1.2000122,1.3199997-4.0499878,4.5299988-5.9899902,10.1399994
		c-1.1400146,3.5999985-1.25,6.2099991-1.2200012,7.3400002c0.0299988,1.1599998,0.1799927,2.3199997,0.4400024,3.4399986
		c-1.6900024-2.2099991-2.5100098-4.9399986-2.6199951-7.3600006l-0.1199951-2.8899994l-1.8999939,2.1599998
		c-1.9500122,2.2299995-3.8900146,4.4799995-5.5499878,6.9599991c-1.6799927,2.4500008-3.2200012,5.0299988-4.4500122,7.7600021
		c-1.230011,2.7200012-2.2000122,5.5800018-2.8500061,8.5c-0.6400146,2.8000031-0.9500122,5.6900024-1.3299866,8.4000015
		c-2.8900146,3.3099976-5.6300049,6.7399979-8.25,10.2600021c-2.6799927,3.6200027-5.2600098,7.3300018-7.5700073,11.25
		c-2.2600098,3.9100037-4.4200134,7.8399963-6.4200134,11.9000015c-0.8099976,1.6800003-1.6000061,3.3799973-2.3299866,5.1100006
		l9.5400085,14.9300003c1.3099976,1.7299957,2.2799988,2.8099976,3.9100037,4.0099945s5.1300049,3.6900024,5.730011,4.0899963
		c0.6099854,0.3999939,1,1.0700073,0.3900146,0.8399963s-5.3699951-2.1900024-6.769989-2.9299927s-3.9200134-2-6.0400085-4.3099976
		c-1.6199951-1.7700043-5.1099854-5.8399963-8.9100037-10.7400055c0,0.0200043-0.0100098,0.0399933-0.019989,0.0599976
		c-1.230011-1.5599976-2.480011-3.1200027-3.6900024-4.6999969c-7.9400024-10.3600006-15.6199951-20.9599991-23.1499939-31.6299973
		l-0.1000061-0.1399994l-0.1400146-0.1100006l-0.019989-0.0199966c-7.3299866-5.6399994-14.2399902-11.7600021-20.25-18.7399979
		c-6.0400085-6.9499969-11.4500122-14.4899979-16.75-22.0900002l-0.0800018-0.1100006l-0.1100006-0.1100006
		c-1.1100006-1.0099983-9.75-8.4900017-17.9199982-21.2600002c-2.5299988-3.9099998-4.8999939-7.9400005-7.0599976-12.0799999
		c-2.1600037-4.1300001-4.1699982-8.3800001-5.8699951-12.6700001l-1.5399933-3.8699999l-0.25,1.45
		c0.0200043-0.1500001,0.0299988-0.29,0.0599976-0.4300001c-0.9400024,3.6500001-1.6199951,7.3899999-1.8699951,11.2000008
		c-0.1199951,1.8999996-0.1600037,3.8299999,0.0500031,5.7700005c0.0399933,0.3500004,0.1000061,0.7099991,0.1499939,1.0799999
		c-1.1799927-1.460001-2.3099976-2.9699993-3.3200073-4.5599995c-2.4400024-3.8299999-4.5200043-7.9299998-6.1699982-12.1499996
		l-1.3699951-3.49l-0.8500061,3.6400001c-0.1600037,0.71-0.2899933,1.4400001-0.4299927,2.1600003
		c0.1100006-0.8299999,0.1699982-1.6700001,0.3200073-2.49c-0.75,3.28-1.2100067,6.6199999-1.4900055,9.9799995
		c-0.25,3.3599997-0.0500031,6.6500006,0.2599945,10.0299997c0.3200073,3.3800011,0.8800049,6.7600002,2,10.0299988
		c0.8399963,2.3499985,1.9700012,4.6300011,3.3999939,6.7299995c-1.9100037-1.3800011-3.3999939-2.8899994-4.3300018-4.0699997
		l-1.9799957-2.5400009l-0.0299988,0.7400017c-0.2599945,1.6399994-0.1499939,3.3899994-0.0700073,5.0400009
		c0.3699951,8,3.6499939,14.5,7.9199982,17.5100021c0.0200043,0.0200005,0.0399933,0.0400009,0.0599976,0.0699997
		c-0.0399933,2.0999985,0.1499939,4.2000008,0.4700012,6.2700005c0.3899994,2.5900002,1.0500031,5.1400032,1.8699951,7.6400032
		c0.8899994,2.4800034,1.9799957,4.9000015,3.3600006,7.1500015c1.0299988,1.6299973,2.2200012,3.1600037,3.5899963,4.5100021
		v0.5899963c0,0.1500015,0.0099945,0.3000031,0.0200043,0.4599991l0.1199951,1.6699982
		c0.1900024,2.0899963,0.6799927,5.8000031,2.7200012,10.0400009c1.8999939,4.0100021,4.8699951,7.5100021,8.5299988,10.0800018
		v0.2799988c0.0599976,2.2200012,0.3000031,4.4700012,0.9600067,6.6200027c0.6999969,2.4400024,1.7799988,4.75,3.1300049,6.8799973
		c2.6799927,4.1299973,6.3800049,7.5400009,10.6900024,9.9299927c1.3300018,2.0700073,2.4900055,4.5299988,3.5399933,6.9199982
		c1.0700073,2.4799957,2.0500031,5.0099945,2.9400024,7.5800018c1.6000061,4.5599976,2.9499969,9.2100067,4.1899872,13.8999939
		c0.0599976,0.3899994,0.2000122,0.8399963,0.3399963,1.2400055c0.0400085,0.1699982,0.1000061,0.3399963,0.1400146,0.5099945
		l0.0700073,0.2799988l0.1700134,0.1999969c7.730011,8.6800079,16.1199951,16.5899963,23.9200134,19.3399963
		c-5.5400085,3.4100037-10.2200012,7.8999939-14.7200012,12.3600006c-2.5799866,2.5700073-5.0899963,5.1900024-7.7000122,7.6399994
		c-2.6000061,2.3600006-5.4100037,4.8699951-8.4600067,5.6300049l-2.4199982,0.6000061c0,0-0.0599976-0.0399933-0.0800018-0.0599976
		c0.0200043,0.0200043,0.0500031,0.0500031,0.0599976,0.0700073l-0.0700073,0.0200043l0.2700043,0.1900024
		c1.3399963,1.4400024,2.9299927,2.6699982,4.8200073,3.5200043c0.3999939,0.1600037,0.8300018,0.2899933,1.25,0.4100037
		c-0.7100067,0.3800049-1.4199982,0.7700043-2.1199951,1.1900024c-3.1300049,1.8800049-5.8999939,4.3399963-8.2899933,7.0599976
		l-2.6699982,3.0299988l3.3099976-0.9900055c-0.1499939,0.0800018-0.3000031,0.1600037-0.4499969,0.25
		c0.2400055-0.1199951,0.4799957-0.2200012,0.7100067-0.3300018l0.3000031-0.0899963
		c5.9400024-1.7700043,12.0800018-2.8699951,18.280014-3.6699982c4.9500122-0.3600006,9.8999939-0.4400024,14.8900146-0.7200012
		c41.2099915-2.2799988,61.1000061-11.7899933,78.8899841-31.8200073c0.5499878-0.6100006,1.0499878-1.2599945,1.5799866-1.8800049
		c2.5499878-2.7700043,5-5.6300049,7.3500061-8.5399933c15.769989-12.3300018,24.1799927-19.1399994,38.1900024-27.6300049
		c9.1700134-1.2200012,16.3999939-4.6900024,23.3999939-10.6600037
		c12.6600037-5.1900024,17.4400024-8.1699982,17.3899841-10.0100021c-0.0100098-0.4300003-0.1099854-0.8600006-0.2200012-1.2300034
		L445.2200012,123.2699966z"/>
	<path class="st4" d="M231.2100067,186.1399994h-0.2299957c0,0,0.0500031-0.0099945,0.0700073-0.0099945
		c-0.0500031,0-0.1000061,0-0.1499939,0.0099945h-0.1499939l-1.8899994,0.1499939
		c-4.25,0.2200012-5.8300018-0.2400055-6.8200073-0.5800018c-0.5500031-0.2700043-1.2299957-0.4799957-2.2700043-0.4499969
		c-5,0.1399994-7.6799927,4.0099945-8.5599976,5.0500031c-2.1999969,1-3.8800049,1.6900024-4.5299988,1.9400024
		c-4.5500031,1.7599945-6.7299957,2.1799927-9.3099976,2.3300018c0.5099945-2.0599976,1.4700012-4.8899994,4.1000061-8.2400055
		c0.7799988-1,3.1499939-3.3699951,4.5899963-5.4600067s3.1399994-4.5299988,4.3600006-6.8399963
		c1.6799927-3.1499939,2.6799927-6.0399933,3.3099976-8.0800018c0.6300049-2.0299988,1.1399994-4.0599976,1.6000061-6.0700073
		c0.4499969-1.8699951,0.8300018-3.7599945,1.3999939-5.5899963c0.1399994-0.4600067,0.3000031-0.9100037,0.4700012-1.3699951
		l0.4499969-1.1999969l-0.9499969,0.7899933c-0.5299988,0.4299927-1.75,1.4400024-3.1799927,3.3000031
		c-0.5800018,0.7799988-1.1199951,1.5899963-1.5500031,2.4499969c-0.0899963,0.1699982-0.1600037,0.3399963-0.2400055,0.5200043
		c0-0.0200043,0.1000061-0.8500061,0.4299927-1.9100037c0.0700073-0.2200012,0.1399994-0.4400024,0.2299957-0.6600037
		l0.4799957-1.2799988l-0.7599945,0.6799927c-0.5599976,0.4799957-1.8800049,1.6600037-3.2200012,3.7599945
		c-0.8200073,1.3500061-1.1900024,2.3500061-1.3200073,2.7799988c-0.1399994,0.4400024-0.2299957,0.8899994-0.2899933,1.3200073
		c-0.2700043-0.8699951-0.1900024-1.9299927,0.0800018-2.8500061l0.3300018-1.1000061l-0.8899994,0.7899933
		c-0.9100037,0.8200073-1.8300018,1.6399994-2.6799927,2.5599976c-0.8600006,0.9100037-1.6799927,1.8600006-2.4199982,2.8800049
		s-1.4199982,2.0899963-2,3.1900024c-0.5599976,1.0599976-1.0299988,2.1499939-1.4900055,3.1799927
		c-1.3500061,1.2100067-2.6799927,2.4700012-3.9700012,3.7700043c-1.3300018,1.3399963-2.6300049,2.6999969-3.8699951,4.1600037
		c-1.2200012,1.4499969-2.4199982,2.9100037-3.5800018,4.4299927c-0.3600006,0.4700012-1.5099945,1.4299927-2.8800049,2.5299988
		l3.4299927,5.3699951c0.5099945,0.6799927,0.8899994,1.0899963,1.5299988,1.5599976s2.2299957,1.0299988,2.5099945,1.1100006
		c0.5399933,0.1499939,0.6699982,0.3500061,0.1499939,0.3300018c-0.2599945,0-2.3600006-0.3699951-2.9100037-0.6600037
		s-1.5299988-0.7799988-2.3500061-1.6799927c-0.6900024-0.7599945-2.2700043-2.6100006-3.9199982-4.7700043l-0.0399933,0.0299988
		c-0.2299957-0.3300018-0.4499969-0.6600037-0.6699982-0.9900055c-0.0800018-0.1000061-0.1499939-0.1999969-0.2299957-0.3000031
		h0.0099945c-2.9199982-4.2299957-5.7899933-8.5099945-8.6000061-12.8199921l-0.0399933-0.0700073l-0.0599976-0.0599976
		c-3.0399933-2.8300018-5.9299927-5.8300018-8.5-9.1699982c-2.5800018-3.3200073-4.9299927-6.8699951-7.2400055-10.4400024
		l-0.0299988-0.0500031l-0.0500031-0.0500031c-0.4700012-0.5-4.0700073-4.1799927-7.6699982-10.1300049
		c-1.1100006-1.8300018-2.1600037-3.6900024-3.1399994-5.6000061c-0.9700012-1.8999939-1.8899994-3.8500061-2.6900024-5.8000031
		l-0.7200012-1.7599945l-0.0500031,0.6199951c0-0.0599976,0-0.1199951,0-0.1900024
		c-0.25,1.5399933-0.3999939,3.1300049-0.3699951,4.7700043c0.0099945,0.8200073,0.0599976,1.6499939,0.1999969,2.5099945
		c0.0299988,0.1600037,0.0599976,0.3200073,0.0899963,0.4700012c-0.5099945-0.6900024-0.9900055-1.3999939-1.4400024-2.1499939
		c-1.0700073-1.7899933-2.0099945-3.6699982-2.7899933-5.5899963l-0.6399994-1.5899963l-0.2200012,1.5399933
		c-0.0399933,0.3000031-0.0700073,0.6100006-0.1000061,0.9199982c0.0200043-0.3600006,0.0200043-0.7100067,0.0399933-1.0599976
		c-0.1900024,1.3800049-0.2599945,2.8099976-0.2599945,4.2599945s0.1900024,2.8800049,0.4199982,4.3699951
		c0.2299957,1.4799957,0.5599976,2.9799957,1.1000061,4.4600067c0.3999939,1.0599976,0.9199982,2.1100006,1.5399933,3.0899963
		c-0.7899933-0.6999969-1.4199982-1.4299927-1.8200073-1.9900055l-0.8500061-1.1999969v0.3200073
		c-0.0399933,0.6999969,0.0599976,1.4700012,0.1399994,2.1900024c0.3999939,3.4900055,1.8800049,6.4799957,3.6499939,8
		c0,0.0099945,0.0200043,0.0200043,0.0299988,0.0299988c0.0500031,0.9100037,0.1900024,1.8300018,0.3800049,2.75
		c0.2299957,1.1399994,0.5700073,2.2799988,0.9700012,3.4100037c0.4299927,1.1199951,0.9299927,2.2299957,1.5399933,3.2799988
		c0.4499969,0.7599945,0.9700012,1.4900055,1.5399933,2.1399994c0,0.0899963,0.0099945,0.1699982,0.0200043,0.25
		c0,0.0700073,0.0099945,0.1300049,0.0200043,0.1999969l0.1000061,0.7299957c0.1399994,0.9199982,0.4499969,2.5500031,1.3800049,4.5
		c0.8699951,1.8399963,2.1399994,3.5099945,3.6499939,4.8099976c0,0.0399933,0,0.0800018,0.0099945,0.1199951
		c0.0899963,0.9700012,0.2599945,1.9600067,0.5800018,2.9199982c0.3500061,1.0899963,0.8399963,2.1499939,1.4400024,3.1399994
		c1.1799927,1.9299927,2.7299957,3.6000061,4.4799957,4.8500061c0.5800018,0.9600067,1.1199951,2.0899963,1.6000061,3.1799927
		c0.5,1.1300049,0.9600067,2.2799988,1.3899994,3.4400024c0.7700043,2.0599976,1.4499969,4.1499939,2.0700073,6.25
		c0.0399933,0.1699982,0.1000061,0.3699951,0.1699982,0.5500031c0.0200043,0.0800018,0.0500031,0.1499939,0.0700073,0.2299957
		l0.0399933,0.1199951l0.0700073,0.1000061c0.8099976,1.0299988,1.6399994,2.0299988,2.4700012,2.9900055
		c-2.1300049,1.3000031-4.0099945,2.9400024-5.8099976,4.6000061c-1.1300049,1.0399933-2.2299957,2.1100006-3.3699951,3.0899963
		c-1.1300049,0.9499969-2.3600006,1.9700012-3.6499939,2.2400055l-1.0299988,0.2100067c0,0-0.0200043-0.0200043-0.0299988-0.0299988
		c0,0,0.0200043,0.0200043,0.0200043,0.0299988h-0.0299988l0.1100006,0.0899963
		c0.5399933,0.6300049,1.1900024,1.1699982,1.9700012,1.5599976c0.1699982,0.0800018,0.3399963,0.1399994,0.5200043,0.1900024
		c-0.3099976,0.1499939-1.8200073,0.7899933-2.1399994,0.9100037c-0.1199951,0.0399933,2.1199951,0.9299927,5.0599976,1.4499969
		c2.5700073,0.4600067,4.9900055,0.4799957,7.0899963,0.4400024c17.3899994-0.3000031,25.9199982-3.9900055,33.7299957-12.1399994
		c0.2400055-0.25,0.4600067-0.5099945,0.6999969-0.7700043c1.1199951-1.1300049,2.1900024-2.2899933,3.2299957-3.4799957
		c6.8399963-4.9400024,6.0200043-5.1799927,12.0500031-8.5299988c3.8800049-0.3600006,6.9799957-1.7100067,10.0200043-4.1199951
		c5.4199982-1.9799957,7.4700012-3.1600037,7.4799957-3.9400024c0-0.1799927-0.0299988-0.3600006-0.0700073-0.5200043
		L231.2100067,186.1399994z"/>
	<path class="st4" d="M523.4799805,55.0099983l-0.2700195,0.0200005c0,0,0.0599976-0.0099983,0.0900269-0.0200005
		c-0.0599976,0-0.1099854,0.0099983-0.1699829,0.0200005h-0.1699829L520.75,55.3499985
		c-4.960022,0.5999985-6.8499756,0.3100014-8.0300293,0.0800018c-0.6699829-0.2000008-1.4700012-0.3400002-2.6900024-0.2200012
		c-5.8500061,0.5900002-8.7000122,4.4700012-9.6499939,5.5299988c-3.25,1.9000015-6.6499939,3.5400009-10.2200012,4.9899979
		c-5.9200134,2.4000015-8.3900146,2.8099976-12.0599976,3.1999969l-0.4500122,0.3300018
		c0.730011-2.5500031,2.8299866-8.0900002,8.6799927-15.2799988c0.8500061-1.0400009,1.1700134-1.4399986,2.6300049-3.9500008
		c1.4500122-2.5099983,2.8599854-4.75,3.3800049-7.4799995c0.6499939-3.4700012,1.2099915-5.9599991,1.5400085-7.9799995
		c0.3299866-2.0099983,0.5100098-4,0.6600037-5.9500008c0.1600037-1.8299999,0.2200012-3.6499996,0.519989-5.4699993
		c0.0799866-0.4599991,0.1600037-0.9099998,0.269989-1.3600006l0.2799988-1.2000008l-0.9400024,0.9500008
		c-0.5299988,0.5200005-1.730011,1.7199993-3.019989,3.7600002c-0.5100098,0.8500004-0.980011,1.7199993-1.2999878,2.6100006
		c-0.0599976,0.1800003-0.1199951,0.3500004-0.1700134,0.5300007c0-0.0200005-0.0499878-0.8099995,0.1199951-1.8600006
		c0.0400085-0.2199993,0.0799866-0.4400005,0.1300049-0.6599998l0.3099976-1.289999l-0.75,0.7999992
		c-0.5499878,0.5699997-1.8500061,1.9500008-2.980011,4.1900005c-0.6799927,1.4300003-0.9100037,2.4299984-0.980011,2.8599987
		c-0.0700073,0.4399986-0.1000061,0.8699989-0.0799866,1.2799988c-0.480011-0.7400017-0.5899963-1.7299995-0.4599915-2.6499996
		l0.1600037-1.0900002l-0.8699951,0.9300003c-0.8900146,0.9599991-1.7799988,1.9200001-2.5799866,2.960001
		c-0.8099976,1.0299988-1.5700073,2.0900002-2.230011,3.2000008s-1.230011,2.25-1.6799927,3.3899994
		c-0.4400024,1.0999985-0.7600098,2.2099991-1.1000061,3.2700005c-1.3200073,1.4199982-2.6000061,2.8800011-3.8399963,4.3699989
		c-1.269989,1.5299988-2.5,3.079998-3.6499939,4.7099991c-1.1300049,1.6100006-2.2200012,3.2299995-3.269989,4.8899994
		c-0.5100098,0.8100014-3.0499878,3.1899986-5.3099976,5.3899994l4.0799866,5.2100029
		c0.5700073,0.6200027,0.9899902,1,1.6700134,1.4100037s2.3200073,0.8199997,2.6000061,0.8700027
		c0.5499878,0.0999985,0.7000122,0.2799988,0.1799927,0.3099976c-0.2600098,0.0100021-2.3900146-0.1399994-2.9599915-0.3799973
		s-3.1000061-1.4700012-4.0100098-2.2900009s-1.5599976-1.1299973-4.2099915-5.4000015
		c-0.519989-0.7599983-1.0299988-1.5-1.519989-2.2200012c-0.4100037-0.4599991-0.8200073-0.9199982-1.2200012-1.3800011
		c-3.8900146-4.5099983-7.6700134-9.1000023-11.3900146-13.7200012l-0.0499878-0.0600014l-0.0700073-0.0499992h-0.0100098
		c-3.4899902-2.5600014-6.7999878-5.2900009-9.730011-8.3600006c-2.9400024-3.0499992-5.6000061-6.3099995-8.2200012-9.6000004
		l-0.0400085-0.0499992l-0.0499878-0.0499992c-0.5299988-0.4500008-4.6700134-3.7999992-8.730011-9.3000011
		c-1.2600098-1.6900005-2.4400024-3.4099998-3.5400085-5.1800003c-1.0899963-1.7600002-2.1199951-3.5699997-3.0100098-5.3800001
		l-0.7999878-1.6399999l-0.0700073,0.5900002c0-0.0599999,0-0.1199999,0.0100098-0.1799998
		c-0.3299866,1.46-0.5400085,2.9800005-0.5499878,4.5299997c0,0.7799997,0.0299988,1.5599995,0.1799927,2.3699999
		c0.0299988,0.1499996,0.0599976,0.3000002,0.1000061,0.4499998c-0.5700073-0.6400003-1.1300049-1.29-1.6300049-1.9799995
		c-1.2099915-1.6499996-2.269989-3.3999996-3.1400146-5.1799998l-0.7200012-1.48l-0.2900085,1.46
		c-0.0599976,0.29-0.0899963,0.5799999-0.1400146,0.8699999c0.0299988-0.3400002,0.0299988-0.6799998,0.0799866-1.0100002
		c-0.2600098,1.3200002-0.3699951,2.6700001-0.4100037,4.04c-0.0299988,1.3699999,0.1499939,2.7200003,0.3900146,4.1199999
		c0.230011,1.3900003,0.5799866,2.7999992,1.1799927,4.1800003c0.4500122,0.9899998,1.019989,1.960001,1.730011,2.8700008
		c-0.9100037-0.6299992-1.6300049-1.2999992-2.0799866-1.8099995l-0.9700012-1.1100006v0.2999992
		c-0.0700073,0.6599998,0.0299988,1.3899994,0.1099854,2.0599995c0.3800049,3.2900009,2.0499878,6.0599995,4.0799866,7.4400005
		c0.0100098,0.0100002,0.019989,0.0200005,0.0299988,0.0300007c0.0400085,0.8600006,0.1799927,1.7199993,0.3800049,2.5900002
		c0.25,1.0699997,0.6099854,2.1399994,1.0599976,3.1899986c0.4700012,1.0400009,1.0299988,2.0699997,1.7200012,3.0400009
		c0.5100098,0.7000008,1.1000061,1.3699989,1.7600098,1.9700012c0,0.0800018,0,0.1599998,0.019989,0.2400017
		c0,0.0600014,0.0100098,0.1199989,0.019989,0.1899986l0.1000061,0.6899986
		c0.1400146,0.8600006,0.4599915,2.4000015,1.5100098,4.2000008c0.9700012,1.7000008,2.4200134,3.2400017,4.1499939,4.4099998
		c0,0.0400009,0,0.0800018,0.0100098,0.1199989c0.0899963,0.9099998,0.2600098,1.8400002,0.6099854,2.7400017
		c0.3900146,1.0200005,0.9400024,2,1.6099854,2.9199982c1.3299866,1.7799988,3.1099854,3.2999992,5.1300049,4.4199982
		c0.6600037,0.8899994,1.2600098,1.9399986,1.7999878,2.9500008c0.5599976,1.0499992,1.0700073,2.1199989,1.5400085,3.2000008
		c0.8500061,1.9199982,1.5899963,3.8700027,2.2799988,5.8300018c0.0400085,0.1600037,0.1099854,0.3499985,0.1900024,0.5199966
		c0.0299988,0.0699997,0.0499878,0.1399994,0.0799866,0.2099991l0.0400085,0.1200027l0.0799866,0.0899963
		c3.730011,3.7900009,7.7399902,7.2900009,11.3500061,8.6900024h1.730011
		c-0.6000061,0.0699997-1.230011,0.1399994-1.8800049,0.2099991c0.019989,0,0.0499878,0.0100021,0.0700073,0.0199966
		c-2.6900024,1.4800034-4.9500122,3.3799973-7.1199951,5.2600021c-1.2399902,1.0800018-2.4500122,2.1800003-3.7099915,3.2099991
		c-1.2600098,1-2.6199951,2.0599976-4.1099854,2.4400024l-1.1900024,0.3000031c0,0-0.0299988-0.0100021-0.0400085-0.0199966
		c0.0100098,0,0.019989,0.0199966,0.0299988,0.0299988h-0.0299988l0.1400146,0.0800018
		c0.6799927,0.5400009,1.480011,0.9899979,2.4299927,1.2799988c0.2000122,0.0599976,0.4100037,0.0999985,0.6300049,0.1299973
		c-0.3500061,0.1699982-0.6900024,0.3399963-1.0299988,0.5199966c-1.519989,0.8199997-2.8599854,1.8600006-4.0100098,3
		l-1.2799988,1.2699966l1.6300049-0.4700012c-0.0700073,0.0400009-0.1499939,0.0699997-0.2200012,0.1100006
		c0.1199951-0.0500031,0.230011-0.0999985,0.3500061-0.1500015l0.1499939-0.0400009
		c2.9200134-0.8399963,5.9400024-1.4300003,8.9899902-1.8899994c2.4400024-0.2600021,4.8900146-0.4100037,7.3500061-0.6399994
		c20.3399963-1.8899994,30.0499878-6.1299973,38.6000061-14.5c0.2600098-0.2600021,0.5-0.5299988,0.7600098-0.7799988
		c1.230011-1.1600037,2.3999939-2.3499985,3.5299988-3.5599976c7.6400146-5.2699966,11.7200012-8.1699982,18.5400085-11.8700027
		c4.519989-0.7000008,8.0499878-2.25,11.4300232-4.7900009c6.1900024-2.3600006,8.5200195-3.6599998,8.4699707-4.3899994
		c-0.0100098-0.1699982-0.0700073-0.3400002-0.1199951-0.4799995L523.4799805,55.0099983z"/>
</g>
<g>
	<g>
		<g>
			<path class="st3" d="M354.5299988,298.7799988h-16.8600159v1.25c2.7000122,0,4.7099915,2.2900085,4.7099915,5.7999878v16.6300049
				c0,4.480011,1.2399902,7.4299927,5.0899963,8.3399963l-0.0499878,0.6400146
				c-4.1700134,0-7.0100098,5.1400146-19.2000122,5.1400146c-14.7099915,0-26.1300049-11.8699951-26.1300049-32.7399902
				c0-23.5100098,13.6600037-32.7200012,25.4299927-32.7200012c9.8900146,0,18.0799866,5.8299866,21.9899902,16.980011h1.1199951
				l2.769989-13.8999939c-6.3699951-4.3200073-15.4200134-6.75-24.5299988-6.75
				c-26.5899963,0-39.6099854,17.9500122-39.6099854,36.0299988s13.3599854,36.7600098,39.5100098,36.7600098
				c12.8800049,0,23.3999939-7.5499878,27.769989-9.0400085c-1.269989-1.3299866-2.019989-3.730011-2.019989-6.1300049v-26.2900085
				L354.5299988,298.7799988z"/>
			<path class="st3" d="M242.1900024,269.2099915c2.4400024,0.3999939,3.7799988,1.8399963,3.5299988,4.1499939
				c-0.4600067,4.2099915-9.2799988,19.6199951-15,29.5899963l-16.5899963-28.019989
				c-1.0800018-1.8900146-1.9799957-4.7099915,2.1000061-5.7200012v-1.0499878h-21.5299988v1.0499878
				c2.3099976,0.3900146,4.0599976,1.980011,6.0399933,4.9599915l19.9300079,33.4400024v24.9400024
				c-0.0200043,3.1499939-1.0099945,5.5400085-3.4799957,5.9500122v1.0499878h19.1000061V338.5
				c-2.4900055-0.4200134-3.4799957-2.8399963-3.4900055-6.0299988v-26.1900024l15.7700043-28.6700134
				c3.9900055-6.7000122,5.7599945-7.8299866,9.1800079-8.4100037v-1.0499878h-15.5500031v1.0499878L242.1900024,269.2099915z"/>
			<path class="st3" d="M168.1000061,335.8399963h-10.7599945v-36h8.5800018c5.8600006,0,8.8000031,3.8099976,8.4900055,8.3500061
				l1.0800018,0.1300049l4.1100006-18.5400085l-1.1199951-0.0799866c-2.3899994,4.5400085-5.1399994,6.4200134-12.4900055,6.4200134
				h-8.6499939v-24.2399902h11.4900055c8.3300018,0,13.3600006,5.5899963,14.6000061,11.5899963h1.0599976l3.0599976-15.2999878
				h-46.1900024v1.0400085c2.4299927,0.3999939,3.7799988,2.7099915,3.8500061,5.7799988v57.5400085
				c-0.0200043,3.1700134-1.3699951,5.5599976-3.8500061,5.9700012v1.0599976h47.0399933
				c0.4100037-4.4899902,1.8000031-14.230011,2.6499939-19.1499939h-1.1799927
				c-4.4100037,9.3800049-12.3399963,15.4400024-21.7599945,15.4400024"/>
			<path class="st3" d="M65.25,298.7799988H48.3899994v1.25c2.7000008,0,4.7099991,2.2900085,4.7099991,5.7999878v16.6300049
				c0,4.480011,1.2400017,7.4299927,5.0900002,8.3399963l-0.0499992,0.6400146
				c-4.1699982,0-7.0100021,5.1400146-19.2000008,5.1400146c-14.7099991,0-26.1299992-11.8699951-26.1299992-32.7399902
				c0-23.5100098,13.6599998-32.7200012,25.4299984-32.7200012c9.8899994,0,18.0800018,5.8299866,21.9899979,16.980011h1.1199989
				l2.7700005-13.8999939c-6.3699989-4.3200073-15.4199982-6.75-24.5299988-6.75
				c-26.5900002,0-39.6100006,17.9500122-39.6100006,36.0299988s13.3599997,36.7600098,39.5099983,36.7600098
				c12.8800011,0,23.3999977-7.5499878,27.7700005-9.0400085c-1.2699966-1.3299866-2.0199966-3.730011-2.0199966-6.1300049
				v-26.2900085L65.25,298.7799988z"/>
			<path class="st3" d="M129.4900055,332.8099976c-0.1300049-0.1499939-13.1399994-23.9400024-13.8399963-25
				c-2.2699966-3.4700012-5.2600021-4.7799988-9-5.1900024v-0.7099915c14.3399963-1.4100037,20-9.5299988,20-16.230011
				c0-8.9500122-8.0599976-17.519989-24.5599976-17.519989H77.6400146v1.0599976
				c2.4100037,0.3900146,3.8499985,2.6099854,3.8499985,5.6499939v57.7000122c0,3.0499878-1.3799973,5.5299988-3.8499985,5.9500122
				v1.0499878h19.8199997v-1.0499878c-2.4899979-0.4200134-3.8399963-2.8299866-3.8499985-6.0299988v-28.3999939h7.25
				l15.4499969,28.7999878c1.4499969,2.6199951,0.75,5.269989-1.4100037,5.6300049v1.0499878h21.3099976v-1.0499878
				c-2.75-0.5700073-5.0099945-2.9599915-6.7100067-5.6900024 M99.5,300.3900146c-0.1699982,0-3.8799973,0-5.8799973,0v-28.4899902
				h5.9000015c10.3199997,0,14.4899979,7.0899963,14.4899979,14.2000122S109.8000031,300.4100342,99.5,300.4100342"/>
			<path class="st3" d="M439.019989,298.4299927c-0.1900024-1.230011-0.4299927-2.4400024-0.7399902-3.6400146
				c-0.0499878-0.2099915-0.0899963-0.4299927-0.1499939-0.6400146c-0.3900146-1.4200134-0.8900146-2.8200073-1.4400024-4.1900024
				c-0.1000061-0.2399902-0.2200012-0.4700012-0.3200073-0.7099915c-0.5100098-1.1799927-1.0799866-2.3299866-1.7200012-3.4500122
				c-0.0799866-0.1499939-0.1400146-0.3099976-0.230011-0.4700012c0,0,0,0-0.019989,0
				c-5.4700012-9.3699951-15.1199951-16.5400085-27.9400024-17.7000122
				c-1.1900024-0.1099854-2.4100037-0.1700134-3.6499939-0.1700134c-22.7000122,0-36.6900024,18.3099976-36.6900024,36.3899841
				v0.019989c0,18.0799866,13.9899902,36.3899841,36.6900024,36.3999939c1.2399902,0,2.4599915-0.0700073,3.6499939-0.1799927
				c12.8099976-1.1600037,22.4700012-8.3299866,27.9400024-17.7000122c0.1000061-0.1300049,0.1600037-0.2999878,0.2399902-0.4599915
				c0.6400146-1.1199951,1.2099915-2.269989,1.7200012-3.4400024c0.1099854-0.2399902,0.2200012-0.4700012,0.3200073-0.7200012
				c0.5499878-1.3699951,1.0499878-2.769989,1.4400024-4.1900024c0.0599976-0.2099915,0.1000061-0.4200134,0.1499939-0.6300049
				c0.3099976-1.2099915,0.5599976-2.4299927,0.7399902-3.6499939c0.0599976-0.3800049,0.1199951-0.7399902,0.1600037-1.1199951
				c0.1799927-1.4299927,0.2999878-2.8699951,0.2999878-4.3099976v-0.019989c0-1.4400024-0.1199951-2.8699951-0.2999878-4.3099976
				c-0.0400085-0.3800049-0.1000061-0.7399902-0.1600037-1.1199951 M407.6599731,336.0099182
				c-0.6499939,0.1499939-1.3099976,0.269989-1.9599915,0.3599854c-0.1600037,0.019989-0.3299866,0.0499878-0.4899902,0.0700073
				c-0.8099976,0.1000061-1.6099854,0.1499939-2.4100037,0.1499939h-0.0400085
				c-11.4400024,0-24.2000122-9.2000122-24.2000122-32.7200012v-0.0400085
				c0-23.5100098,12.7600098-32.7200012,24.2000122-32.7200012h0.0400085c0.7999878,0,1.6000061,0.0499878,2.4100037,0.1499939
				c0.1600037,0.019989,0.3299866,0.0499878,0.4899902,0.0700073c0.6499939,0.1000061,1.3099976,0.2099915,1.9599915,0.3599854
				c7.5100098,1.7600098,14.730011,7.730011,17.7900085,19.3099976c0.1400146,0.5400085,0.2900085,1.0700073,0.4100037,1.6400146
				c0.1300049,0.5700073,0.2200012,1.1799927,0.3299866,1.7799988c0.1000061,0.5499878,0.2099915,1.0799866,0.2900085,1.6499939
				c0.1000061,0.730011,0.1700134,1.5100098,0.2399902,2.2799988c0.0499878,0.480011,0.1099854,0.9400024,0.1400146,1.4299927
				C426.9499817,301.0798645,427,302.4198914,427,303.8198853v0.0400085c0,1.4100037-0.0499878,2.7399902-0.1400146,4.0400085
				c-0.0299988,0.4899902-0.0899963,0.9599915-0.1400146,1.4299927c-0.0700073,0.7799988-0.1400146,1.5499878-0.2399902,2.2799988
				c-0.0799866,0.5700073-0.1900024,1.1099854-0.2900085,1.6600037c-0.1099854,0.6000061-0.2099915,1.2000122-0.3299866,1.769989
				c-0.1300049,0.5599976-0.269989,1.1000061-0.4100037,1.6400146
				c-3.0599976,11.5899963-10.2799988,17.5599976-17.7900085,19.3099976"/>
			<path class="st3" d="M485.4200134,267.4599915c-22.7099915,0-36.6799927,18.3200073-36.6799927,36.3999939v0.019989
				c0,18.0700073,13.980011,36.3899841,36.6799927,36.3899841s36.6899719-18.3200073,36.6899719-36.3900146v-0.019989
				c0-18.0799866-13.9899902-36.3899841-36.6900024-36.3999939 M509.6399841,303.8899536
				c0,23.5100098-12.769989,32.7200012-24.2099915,32.7200012h-0.0299988c-11.4400024,0-24.2099915-9.2000122-24.2099915-32.7200012
				v-0.0400085c0-23.5100098,12.769989-32.7200012,24.2099915-32.7200012h0.0299988
				c11.4400024,0,24.2099915,9.2000122,24.2099915,32.7200012V303.8899536z"/>
			<path class="st3" d="M542.3400269,282.9100037c0-7.3900146,5.8300171-11.7999878,13.3599854-11.7999878
				s13.7600098,4.7000122,17.25,16.6399841h1l3.0100098-13.5299988c-6.9099731-4.6900024-13.4199829-6.8599854-21.2000122-6.8599854
				c-12.5,0-22.6799927,7.7099915-22.6799927,19.3999939c0,28.2099915,40.2200317,10.8699951,40.2200317,34.8599854
				c0,9.2000122-7.2999878,15.019989-15.4500122,15.019989c-10.2399902,0-18.4400024-6.8900146-21.6500244-22.3299866h-1.1699829
				L531.1500244,331.5c8.7700195,5.9500122,16.6500244,8.730011,26.5300293,8.730011
				c13.2299805,0,24.5499878-7.4700012,24.5499878-23.8899841v-0.019989c0-28.3299866-39.8900146-14.5-39.8900146-33.4200134"/>
			<path class="st3" d="M639.960022,320.3999939c-4.4099731,9.3800049-12.3400269,15.4400024-21.7600098,15.4400024h-10.7600098v-36
				h8.5800171c5.8599854,0,8.7999878,3.8099976,8.4899902,8.3500061l1.0800171,0.1300049l4.1099854-18.5400085l-1.1199951-0.0799866
				c-2.3900146,4.5400085-5.1400146,6.4200134-12.4899902,6.4200134h-8.6500244v-24.2399902h11.4899902
				c8.3300171,0,13.3599854,5.5899963,14.6099854,11.5899963h1.0599976l3.0499878-15.2999878h-46.1900024v1.0400085
				c2.4299927,0.3999939,3.7800293,2.7099915,3.8499756,5.7799988v57.5400085
				c-0.0200195,3.1700134-1.3699951,5.5599976-3.8499756,5.9700012v1.0599976h47.039978
				c0.4099731-4.4899902,1.7999878-14.230011,2.6500244-19.1499939h-1.1799927L639.960022,320.3999939z"/>
		</g>
	</g>
	<path class="st3" d="M656.8400269,281.5400085c-4.7600098,0-8.6400146-3.8800049-8.6400146-8.6400146
		s3.8800049-8.6400146,8.6400146-8.6400146s8.6400146,3.8800049,8.6400146,8.6400146
		S661.6000366,281.5400085,656.8400269,281.5400085z M656.8400269,265.3200073
		c-4.1799927,0-7.5800171,3.3999939-7.5800171,7.5799866s3.4000244,7.5799866,7.5800171,7.5799866
		s7.5800171-3.3999939,7.5800171-7.5799866S661.0200195,265.3200073,656.8400269,265.3200073z"/>
	<path class="st5" d="M656.2600098,273.519989h-0.3499756v4.6400146h-2.1199951v-10.9400024h3.8900146
		c1.7700195,0,3.1799927,0.7099915,3.1799927,2.730011c0,1.1900024-0.3499756,2.3800049-1.7700195,2.6199951
		c1.2399902,0.2399902,1.5900269,0.9500122,1.5900269,2.019989c0,0.3599854,0,3.0899963,0.5300293,3.4500122v0.1199951h-2.2999878
		c-0.1799927-0.5899963-0.1799927-2.019989-0.1799927-2.730011s0-1.5400085-0.710022-1.7799988
		c-0.5300293-0.1199951-1.2399902-0.1199951-1.7700195-0.1199951 M655.9000854,269.25v2.9700012h1.5900269
		c0.710022,0,1.2399902-0.480011,1.2399902-1.5499878c0-1.1900024-0.5300293-1.4299927-1.4199829-1.4299927h-1.4199829"/>
</g>
<g>
	<path class="st0" d="M358.2799683,395.6099854h-74.8999939V381h74.8999939V395.6099854z"/>
	<path class="st1" d="M433.1899719,395.6099854H358.289978V381h74.8999939V395.6099854z"/>
	<path class="st2" d="M283.3800049,395.6099854h-74.9000244V381h74.8999939L283.3800049,395.6099854z"/>
</g>
<g>
	<path class="st3" d="M199.1799927,475.2000122l-16.9100037-36.9599915l-4.6900024-4.1700134h18.7400055l-5.4299927,4.4599915
		l10.1699982,22.7399902l10-22.9700012l-5.1999969-4.230011h14l-4.6300049,4.1700134L199.1799927,475.2000122z"/>
	<path class="st3" d="M238.5299988,454.1099854c0-10.1099854,6.9700012-20.7399902,19.8800049-20.7399902
		S278.2900085,444,278.2900085,454.1099854s-7.0299988,20.7399902-19.8800049,20.7399902
		S238.5299988,464.2199707,238.5299988,454.1099854z M269.5499878,456.3399963v-4.4599915
		c0-7.1400146-2.5700073-16.1099854-11.1400146-16.1099854s-11.1399994,8.9700012-11.1399994,16.1099854v4.4599915
		c0,7.2000122,2.5700073,16.1100159,11.1399994,16.1100159c8.5700073,0,11.1400146-8.9100037,11.1400146-16.1099854V456.3399963z"/>
	<path class="st3" d="M306.1000061,470.0599976v-31.8800049l-4.6300049-4.1199951h17.3099976
		c12.9100037,0,20.9100037,7.7099915,20.9100037,20.0499878s-7.5400085,20.0499878-21.8800049,20.0499878h-16.3399963
		l4.6300049-4.1099854V470.0599976z M317.0700073,471.0899963c9.9400024,0,14.0499878-4.6900024,14.0499878-16.1700134
		c0-10.0499878-3.769989-17.769989-14.0499878-17.769989h-3.769989v33.9400024H317.0700073z"/>
	<path class="st3" d="M383.4400024,474.1700134l4.6300049-4.1099854l-13.25-16.5100098v16.5100098l4.6300049,4.1099854H363
		l4.6300049-4.1099854v-31.8800049L363,434.0600281h16.4500122l-4.6300049,4.1199951v14.9599915l12.4500122-11.5899963v-7.4899902
		h13.6000061l-10.1099854,8.230011l-9.019989,8.4500122l15.9400024,19.5400085l5.4299927,3.8900146h-19.6499939
		L383.4400024,474.1700134z"/>
	<path class="st3" d="M446.8999939,474.1700134l4.3999939-3.8900146l-2.9700012-7.0799866H433.019989l-2.9700012,6.9100037
		l4.6300049,4.0599976h-13.0799866l4.6900024-4.230011l16.3899841-36.8999939L459.019989,470l4.7399902,4.1700134h-16.8500061
		H446.8999939z M446.8399963,459.7700195l-6.230011-14.6300049l-6.230011,14.6300049h12.4500122H446.8399963z"/>
</g>
</svg>
